<?xml version="1.0" encoding="UTF-8"?>
<svg
  xmlns="http://www.w3.org/2000/svg"
  width="1024"
  height="1024"
  viewBox="0 0 1024 1024"
  fill="none"
  aria-label="Lantern icon"
  role="img"
>
  <defs>
    <!-- Subtle inner glow (no gradients; single-color glow via filter) -->
    <filter id="innerGlow" x="-20%" y="-20%" width="140%" height="140%" color-interpolation-filters="sRGB">
      <!-- Blur a copy of the shape -->
      <feGaussianBlur in="SourceGraphic" stdDeviation="10" result="blur"/>
      <!-- Keep only the blur that sits INSIDE the original shape -->
      <feComposite in="blur" in2="SourceGraphic" operator="in" result="innerBlur"/>
      <!-- Tint the inner blur with the same solid gold -->
      <feColorMatrix
        in="innerBlur"
        type="matrix"
        values="
          0 0 0 0 1
          0 0 0 0 0.725
          0 0 0 0 0.341
          0 0 0 0.45 0"
        result="glow"
      />
      <!-- Merge original + subtle inner glow -->
      <feMerge>
        <feMergeNode in="SourceGraphic"/>
        <feMergeNode in="glow"/>
      </feMerge>
    </filter>
  </defs>

  <!-- Centered lantern silhouette -->
  <g filter="url(#innerGlow)">
    <!-- Hanger / bracket -->
    <path
      fill="#FFB957"
      d="M332 246c0-18 14-32 32-32h176c18 0 32 14 32 32v14c0 6-2 12-6 17l-18 22c-5 6-8 13-8 21v20h-48v-16c0-20 7-39 20-54l6-7H380l6 7c13 15 20 34 20 54v16h-48v-20c0-8-3-15-8-21l-18-22c-4-5-6-11-6-17v-14z"
    />

    <!-- Top cap -->
    <path
      fill="#FFB957"
      d="M410 342h204c16 0 28 12 28 28v32c0 12-7 23-18 27l-38 16H438l-38-16c-11-4-18-15-18-27v-32c0-16 12-28 28-28z"
    />

    <!-- Lantern body (simple faceted silhouette) -->
    <path
      fill="#FFB957"
      d="M438 445h148l58 98c5 9 8 19 8 29v220c0 22-18 40-40 40H412c-22 0-40-18-40-40V572c0-10 3-20 8-29l58-98z"
    />

    <!-- Inner cut lines (simple silhouette detail, still solid shapes) -->
    <path
      fill="#FFB957"
      d="M512 472c10 0 18 8 18 18v308c0 10-8 18-18 18s-18-8-18-18V490c0-10 8-18 18-18z"
      opacity="0.22"
    />
    <path
      fill="#FFB957"
      d="M450 472c9 0 16 7 16 16v312c0 9-7 16-16 16s-16-7-16-16V488c0-9 7-16 16-16z"
      opacity="0.12"
    />
    <path
      fill="#FFB957"
      d="M574 472c9 0 16 7 16 16v312c0 9-7 16-16 16s-16-7-16-16V488c0-9 7-16 16-16z"
      opacity="0.12"
    />

    <!-- Bottom finial -->
    <path
      fill="#FFB957"
      d="M460 832h104c0 34-23 64-56 72v18c0 10-8 18-18 18s-18-8-18-18v-18c-33-8-56-38-56-72z"
    />
  </g>
</svg>
